<?xml version="1.0" encoding="UTF-8" standalone="no"?>
<!DOCTYPE svg PUBLIC "-//W3C//DTD SVG 1.1//EN"
 "http://www.w3.org/Graphics/SVG/1.1/DTD/svg11.dtd">
<!-- Generated by graphviz version 13.0.1 (20250615.1724)
 -->
<!-- Title: G Pages: 1 -->
<svg width="557pt" height="657pt"
 viewBox="0.00 0.00 557.00 657.00" xmlns="http://www.w3.org/2000/svg" xmlns:xlink="http://www.w3.org/1999/xlink">
<g id="graph0" class="graph" transform="scale(1 1) rotate(0) translate(4 653)">
<title>G</title><style>.edge>path:hover{stroke-width:8}</style>
<polygon fill="white" stroke="none" points="-4,4 -4,-653 553.31,-653 553.31,4 -4,4"/>
<!-- app_py -->
<g id="node1" class="node">
<title>app_py</title><style>.edge>path:hover{stroke-width:8}</style>
<ellipse fill="#995252" stroke="black" cx="514.43" cy="-18" rx="27.21" ry="18"/>
<text xml:space="preserve" text-anchor="middle" x="514.43" y="-14.5" font-family="Helvetica,sans-Serif" font-size="10.00" fill="#ffffff">app.py</text>
</g>
<!-- flask -->
<g id="node2" class="node">
<title>flask</title><style>.edge>path:hover{stroke-width:8}</style>
<polygon fill="blue" stroke="black" points="313.43,-145 259.43,-145 259.43,-109 313.43,-109 313.43,-145"/>
<text xml:space="preserve" text-anchor="middle" x="286.43" y="-123.5" font-family="Helvetica,sans-Serif" font-size="10.00" fill="white">flask</text>
</g>
<!-- flask&#45;&gt;app_py -->
<g id="edge1" class="edge">
<title>flask&#45;&gt;app_py</title><style>.edge>path:hover{stroke-width:8}</style>
<path fill="none" stroke="black" d="M514.43,-72C518.75,-64.67 519.94,-55.72 519.71,-47.28"/>
<polygon fill="blue" stroke="black" points="523.21,-47.03 518.76,-37.41 516.24,-47.71 523.21,-47.03"/>
<path fill="none" stroke="black" d="M313.79,-121.88C372.1,-112.79 504.19,-90.43 514.43,-73"/>
</g>
<!-- flask_app -->
<g id="node3" class="node">
<title>flask_app</title><style>.edge>path:hover{stroke-width:8}</style>
<polygon fill="blue" stroke="black" points="226.31,-577 170.56,-577 170.56,-541 226.31,-541 226.31,-577"/>
<text xml:space="preserve" text-anchor="middle" x="198.43" y="-555.5" font-family="Helvetica,sans-Serif" font-size="10.00" fill="white">flask.app</text>
</g>
<!-- flask_app&#45;&gt;flask -->
<g id="edge2" class="edge">
<title>flask_app&#45;&gt;flask</title><style>.edge>path:hover{stroke-width:8}</style>
<path fill="none" stroke="black" d="M226.48,-549.87C276.39,-533.48 375.43,-491.44 375.43,-416 375.43,-416 375.43,-416 375.43,-342 375.43,-303.66 326.11,-203.8 300.9,-155.27"/>
<polygon fill="blue" stroke="black" points="304.06,-153.76 296.33,-146.53 297.86,-157.01 304.06,-153.76"/>
</g>
<!-- flask_ctx -->
<g id="node6" class="node">
<title>flask_ctx</title><style>.edge>path:hover{stroke-width:8}</style>
<polygon fill="blue" stroke="black" points="69.43,-505 15.43,-505 15.43,-469 69.43,-469 69.43,-505"/>
<text xml:space="preserve" text-anchor="middle" x="42.43" y="-483.5" font-family="Helvetica,sans-Serif" font-size="10.00" fill="white">flask.ctx</text>
</g>
<!-- flask_app&#45;&gt;flask_ctx -->
<g id="edge3" class="edge">
<title>flask_app&#45;&gt;flask_ctx</title><style>.edge>path:hover{stroke-width:8}</style>
<path fill="none" stroke="black" d="M159.94,-540.73C135.54,-529.78 104.13,-515.68 79.92,-504.82"/>
<polygon fill="blue" stroke="black" points="158.25,-543.8 168.8,-544.7 161.11,-537.42 158.25,-543.8"/>
<polygon fill="blue" stroke="black" points="81.63,-501.75 71.07,-500.85 78.76,-508.14 81.63,-501.75"/>
</g>
<!-- flask_globals -->
<g id="node7" class="node">
<title>flask_globals</title><style>.edge>path:hover{stroke-width:8}</style>
<polygon fill="blue" stroke="black" points="195.81,-433 125.06,-433 125.06,-397 195.81,-397 195.81,-433"/>
<text xml:space="preserve" text-anchor="middle" x="160.43" y="-411.5" font-family="Helvetica,sans-Serif" font-size="10.00" fill="white">flask.globals</text>
</g>
<!-- flask_app&#45;&gt;flask_globals -->
<g id="edge4" class="edge">
<title>flask_app&#45;&gt;flask_globals</title><style>.edge>path:hover{stroke-width:8}</style>
<path fill="none" stroke="black" d="M190.84,-529.6C184.17,-504.7 174.54,-468.71 167.91,-443.94"/>
<polygon fill="blue" stroke="black" points="187.42,-530.37 193.38,-539.13 194.18,-528.56 187.42,-530.37"/>
<polygon fill="blue" stroke="black" points="171.37,-443.33 165.4,-434.57 164.61,-445.14 171.37,-443.33"/>
</g>
<!-- flask_templating -->
<g id="node11" class="node">
<title>flask_templating</title><style>.edge>path:hover{stroke-width:8}</style>
<polygon fill="blue" stroke="black" points="286.93,-217 225.93,-217 225.93,-181 286.93,-181 286.93,-217"/>
<text xml:space="preserve" text-anchor="middle" x="256.43" y="-201.5" font-family="Helvetica,sans-Serif" font-size="10.00" fill="white">flask.</text>
<text xml:space="preserve" text-anchor="middle" x="256.43" y="-189.5" font-family="Helvetica,sans-Serif" font-size="10.00" fill="white">templating</text>
</g>
<!-- flask_app&#45;&gt;flask_templating -->
<g id="edge5" class="edge">
<title>flask_app&#45;&gt;flask_templating</title><style>.edge>path:hover{stroke-width:8}</style>
<path fill="none" stroke="black" d="M230.29,-533.58C259.89,-507.87 299.43,-464.46 299.43,-416 299.43,-416 299.43,-416 299.43,-342 299.43,-300.84 282.68,-255.74 270.09,-227.65"/>
<polygon fill="blue" stroke="black" points="228.42,-530.58 223.02,-539.69 232.93,-535.94 228.42,-530.58"/>
<polygon fill="blue" stroke="black" points="273.36,-226.39 265.98,-218.79 267.01,-229.34 273.36,-226.39"/>
</g>
<!-- flask_blueprints -->
<g id="node4" class="node">
<title>flask_blueprints</title><style>.edge>path:hover{stroke-width:8}</style>
<polygon fill="blue" stroke="black" points="162.43,-217 104.43,-217 104.43,-181 162.43,-181 162.43,-217"/>
<text xml:space="preserve" text-anchor="middle" x="133.43" y="-201.5" font-family="Helvetica,sans-Serif" font-size="10.00" fill="white">flask.</text>
<text xml:space="preserve" text-anchor="middle" x="133.43" y="-189.5" font-family="Helvetica,sans-Serif" font-size="10.00" fill="white">blueprints</text>
</g>
<!-- flask_blueprints&#45;&gt;flask -->
<g id="edge6" class="edge">
<title>flask_blueprints&#45;&gt;flask</title><style>.edge>path:hover{stroke-width:8}</style>
<path fill="none" stroke="black" d="M162.93,-184.5C187.36,-173.33 222.21,-157.38 248.67,-145.28"/>
<polygon fill="blue" stroke="black" points="250.07,-148.49 257.7,-141.14 247.16,-142.12 250.07,-148.49"/>
</g>
<!-- flask_config -->
<g id="node5" class="node">
<title>flask_config</title><style>.edge>path:hover{stroke-width:8}</style>
<ellipse fill="#85b653" stroke="black" cx="383.43" cy="-199" rx="39.84" ry="18"/>
<text xml:space="preserve" text-anchor="middle" x="383.43" y="-195.5" font-family="Helvetica,sans-Serif" font-size="10.00" fill="#000000">flask.config</text>
</g>
<!-- flask_config&#45;&gt;flask -->
<g id="edge7" class="edge">
<title>flask_config&#45;&gt;flask</title><style>.edge>path:hover{stroke-width:8}</style>
<path fill="none" stroke="black" d="M362.86,-183.15C350.27,-174.07 333.87,-162.23 319.49,-151.86"/>
<polygon fill="#85b653" stroke="black" points="321.78,-149.19 311.62,-146.18 317.68,-154.87 321.78,-149.19"/>
</g>
<!-- flask_ctx&#45;&gt;flask -->
<g id="edge8" class="edge">
<title>flask_ctx&#45;&gt;flask</title><style>.edge>path:hover{stroke-width:8}</style>
<path fill="none" stroke="black" d="M19.43,-198C38.86,-156.45 178.53,-137.9 247.75,-131.18"/>
<polygon fill="blue" stroke="black" points="247.88,-134.69 257.51,-130.28 247.23,-127.72 247.88,-134.69"/>
<path fill="none" stroke="black" d="M35.3,-468.51C17.55,-422.13 -24.14,-293.18 19.43,-200"/>
</g>
<!-- flask_ctx&#45;&gt;flask_globals -->
<g id="edge10" class="edge">
<title>flask_ctx&#45;&gt;flask_globals</title><style>.edge>path:hover{stroke-width:8}</style>
<path fill="none" stroke="black" d="M79.27,-464.15C92.72,-456.17 107.96,-447.13 121.57,-439.05"/>
<polygon fill="blue" stroke="black" points="77.92,-460.88 71.1,-468.99 81.49,-466.9 77.92,-460.88"/>
<polygon fill="blue" stroke="black" points="123.04,-442.26 129.85,-434.14 119.46,-436.23 123.04,-442.26"/>
</g>
<!-- flask_globals&#45;&gt;flask -->
<g id="edge11" class="edge">
<title>flask_globals&#45;&gt;flask</title><style>.edge>path:hover{stroke-width:8}</style>
<path fill="none" stroke="black" d="M175.43,-342C176.29,-305.73 153.89,-301.97 133.43,-272"/>
<path fill="none" stroke="black" d="M133.43,-270C127.05,-260.64 123.66,-259.58 114.43,-253 75.07,-224.93 -1.04,-243.8 19.43,-200"/>
</g>
<!-- flask_globals&#45;&gt;flask_blueprints -->
<g id="edge13" class="edge">
<title>flask_globals&#45;&gt;flask_blueprints</title><style>.edge>path:hover{stroke-width:8}</style>
<path fill="none" stroke="black" d="M133.43,-270C125.33,-258.12 124.72,-242.27 126.4,-228.65"/>
<polygon fill="blue" stroke="black" points="129.83,-229.36 128.09,-218.91 122.93,-228.17 129.83,-229.36"/>
</g>
<!-- flask_helpers -->
<g id="node8" class="node">
<title>flask_helpers</title><style>.edge>path:hover{stroke-width:8}</style>
<polygon fill="blue" stroke="black" points="233.18,-289 161.68,-289 161.68,-253 233.18,-253 233.18,-289"/>
<text xml:space="preserve" text-anchor="middle" x="197.43" y="-267.5" font-family="Helvetica,sans-Serif" font-size="10.00" fill="white">flask.helpers</text>
</g>
<!-- flask_globals&#45;&gt;flask_helpers -->
<g id="edge15" class="edge">
<title>flask_globals&#45;&gt;flask_helpers</title><style>.edge>path:hover{stroke-width:8}</style>
<path fill="none" stroke="black" d="M175.43,-342C176.08,-327.78 180.36,-312.63 184.97,-300.07"/>
<polygon fill="blue" stroke="black" points="188.23,-301.37 188.65,-290.78 181.72,-298.79 188.23,-301.37"/>
</g>
<!-- flask_json -->
<g id="node9" class="node">
<title>flask_json</title><style>.edge>path:hover{stroke-width:8}</style>
<polygon fill="blue" stroke="black" points="105.43,-289 47.43,-289 47.43,-253 105.43,-253 105.43,-289"/>
<text xml:space="preserve" text-anchor="middle" x="76.43" y="-267.5" font-family="Helvetica,sans-Serif" font-size="10.00" fill="white">flask.json</text>
</g>
<!-- flask_globals&#45;&gt;flask_json -->
<g id="edge16" class="edge">
<title>flask_globals&#45;&gt;flask_json</title><style>.edge>path:hover{stroke-width:8}</style>
<path fill="none" stroke="black" d="M165.82,-396.66C169.78,-382.62 174.6,-362.25 175.43,-344"/>
<path fill="none" stroke="black" d="M175.43,-342C176.14,-326.64 143.81,-306.02 115.91,-291.14"/>
<polygon fill="blue" stroke="black" points="117.74,-288.15 107.25,-286.64 114.51,-294.36 117.74,-288.15"/>
</g>
<!-- flask_globals&#45;&gt;flask_templating -->
<g id="edge17" class="edge">
<title>flask_globals&#45;&gt;flask_templating</title><style>.edge>path:hover{stroke-width:8}</style>
<path fill="none" stroke="black" d="M175.43,-342C177.17,-304.07 223.28,-321.78 242.43,-289 253.06,-270.81 256.38,-247.12 257.14,-228.75"/>
<polygon fill="blue" stroke="black" points="260.64,-228.86 257.3,-218.81 253.64,-228.75 260.64,-228.86"/>
</g>
<!-- flask_wrappers -->
<g id="node12" class="node">
<title>flask_wrappers</title><style>.edge>path:hover{stroke-width:8}</style>
<polygon fill="blue" stroke="black" points="137.31,-361 57.56,-361 57.56,-325 137.31,-325 137.31,-361"/>
<text xml:space="preserve" text-anchor="middle" x="97.43" y="-339.5" font-family="Helvetica,sans-Serif" font-size="10.00" fill="white">flask.wrappers</text>
</g>
<!-- flask_globals&#45;&gt;flask_wrappers -->
<g id="edge18" class="edge">
<title>flask_globals&#45;&gt;flask_wrappers</title><style>.edge>path:hover{stroke-width:8}</style>
<path fill="none" stroke="black" d="M137.36,-388.36C131.87,-382.26 126.01,-375.75 120.52,-369.65"/>
<polygon fill="blue" stroke="black" points="134.56,-390.48 143.85,-395.57 139.76,-385.8 134.56,-390.48"/>
<polygon fill="blue" stroke="black" points="123.13,-367.32 113.84,-362.23 117.93,-372 123.13,-367.32"/>
</g>
<!-- flask_helpers&#45;&gt;flask -->
<g id="edge19" class="edge">
<title>flask_helpers&#45;&gt;flask</title><style>.edge>path:hover{stroke-width:8}</style>
<path fill="none" stroke="black" d="M197.63,-252.6C198.59,-233.61 202.44,-203 216.43,-181 224.63,-168.11 237.14,-157.19 249.32,-148.67"/>
<polygon fill="blue" stroke="black" points="251.23,-151.61 257.67,-143.2 247.39,-145.76 251.23,-151.61"/>
</g>
<!-- flask_helpers&#45;&gt;flask_app -->
<g id="edge20" class="edge">
<title>flask_helpers&#45;&gt;flask_app</title><style>.edge>path:hover{stroke-width:8}</style>
<path fill="none" stroke="black" d="M198.72,-289.38C200.42,-313.51 203.36,-358.54 204.43,-397 205.73,-443.36 202.83,-497.21 200.63,-529.4"/>
<polygon fill="blue" stroke="black" points="197.15,-528.88 199.93,-539.1 204.14,-529.38 197.15,-528.88"/>
</g>
<!-- flask_helpers&#45;&gt;flask_blueprints -->
<g id="edge21" class="edge">
<title>flask_helpers&#45;&gt;flask_blueprints</title><style>.edge>path:hover{stroke-width:8}</style>
<path fill="none" stroke="black" d="M181.61,-252.7C174.1,-244.47 164.96,-234.48 156.68,-225.42"/>
<polygon fill="blue" stroke="black" points="159.42,-223.24 150.09,-218.22 154.26,-227.96 159.42,-223.24"/>
</g>
<!-- flask_helpers&#45;&gt;flask_templating -->
<g id="edge22" class="edge">
<title>flask_helpers&#45;&gt;flask_templating</title><style>.edge>path:hover{stroke-width:8}</style>
<path fill="none" stroke="black" d="M212.02,-252.7C218.88,-244.56 227.2,-234.69 234.77,-225.7"/>
<polygon fill="blue" stroke="black" points="237.27,-228.16 241.04,-218.26 231.92,-223.65 237.27,-228.16"/>
</g>
<!-- flask_json&#45;&gt;flask -->
<g id="edge24" class="edge">
<title>flask_json&#45;&gt;flask</title><style>.edge>path:hover{stroke-width:8}</style>
<path fill="none" stroke="black" d="M46.98,-252.71C28.58,-239.49 10.01,-220.16 19.43,-200"/>
</g>
<!-- flask_signals -->
<g id="node10" class="node">
<title>flask_signals</title><style>.edge>path:hover{stroke-width:8}</style>
<ellipse fill="#85e722" stroke="black" cx="198.43" cy="-631" rx="42.54" ry="18"/>
<text xml:space="preserve" text-anchor="middle" x="198.43" y="-627.5" font-family="Helvetica,sans-Serif" font-size="10.00" fill="#000000">flask.signals</text>
</g>
<!-- flask_signals&#45;&gt;flask -->
<g id="edge26" class="edge">
<title>flask_signals&#45;&gt;flask</title><style>.edge>path:hover{stroke-width:8}</style>
<path fill="none" stroke="black" d="M413.43,-342C402.65,-270.76 473.79,-240 432.43,-181 408.31,-146.58 359.43,-134.42 324.89,-130.18"/>
<polygon fill="#85e722" stroke="black" points="325.6,-126.74 315.29,-129.18 324.87,-133.7 325.6,-126.74"/>
</g>
<!-- flask_signals&#45;&gt;flask_app -->
<g id="edge27" class="edge">
<title>flask_signals&#45;&gt;flask_app</title><style>.edge>path:hover{stroke-width:8}</style>
<path fill="none" stroke="black" d="M198.43,-612.7C198.43,-605.41 198.43,-596.73 198.43,-588.54"/>
<polygon fill="#85e722" stroke="black" points="201.93,-588.62 198.43,-578.62 194.93,-588.62 201.93,-588.62"/>
</g>
<!-- flask_signals&#45;&gt;flask_ctx -->
<g id="edge28" class="edge">
<title>flask_signals&#45;&gt;flask_ctx</title><style>.edge>path:hover{stroke-width:8}</style>
<path fill="none" stroke="black" d="M181.14,-614.26C154.17,-589.71 101.84,-542.08 69.74,-512.85"/>
<polygon fill="#85e722" stroke="black" points="72.13,-510.29 62.38,-506.15 67.41,-515.47 72.13,-510.29"/>
</g>
<!-- flask_signals&#45;&gt;flask_helpers -->
<g id="edge29" class="edge">
<title>flask_signals&#45;&gt;flask_helpers</title><style>.edge>path:hover{stroke-width:8}</style>
<path fill="none" stroke="black" d="M413.43,-414C383.32,-344 298.13,-304.39 244.17,-285.65"/>
<polygon fill="#85e722" stroke="black" points="245.52,-282.41 234.92,-282.55 243.29,-289.04 245.52,-282.41"/>
<path fill="none" stroke="black" d="M228.81,-618.16C292.93,-591.02 434.56,-518.65 413.43,-416"/>
</g>
<!-- flask_signals&#45;&gt;flask_templating -->
<g id="edge30" class="edge">
<title>flask_signals&#45;&gt;flask_templating</title><style>.edge>path:hover{stroke-width:8}</style>
<path fill="none" stroke="black" d="M413.43,-414C409.68,-383.12 420.91,-374.2 413.43,-344"/>
<path fill="none" stroke="black" d="M413.43,-342C398.98,-283.63 338.86,-241.86 297.35,-219.32"/>
<polygon fill="#85e722" stroke="black" points="299.06,-216.26 288.58,-214.71 295.81,-222.46 299.06,-216.26"/>
</g>
<!-- flask_templating&#45;&gt;flask -->
<g id="edge31" class="edge">
<title>flask_templating&#45;&gt;flask</title><style>.edge>path:hover{stroke-width:8}</style>
<path fill="none" stroke="black" d="M263.85,-180.7C267.08,-173.15 270.95,-164.12 274.57,-155.68"/>
<polygon fill="blue" stroke="black" points="277.79,-157.07 278.51,-146.5 271.35,-154.31 277.79,-157.07"/>
</g>
<!-- flask_wrappers&#45;&gt;flask -->
<g id="edge33" class="edge">
<title>flask_wrappers&#45;&gt;flask</title><style>.edge>path:hover{stroke-width:8}</style>
<path fill="none" stroke="black" d="M19.43,-270C17.01,-238.98 6.26,-228.18 19.43,-200"/>
<path fill="none" stroke="black" d="M60.24,-324.69C41.05,-312.99 21.26,-295.4 19.43,-272"/>
</g>
<!-- flask_wrappers&#45;&gt;flask_app -->
<g id="edge34" class="edge">
<title>flask_wrappers&#45;&gt;flask_app</title><style>.edge>path:hover{stroke-width:8}</style>
<path fill="none" stroke="black" d="M97.43,-416C87.75,-468.51 139.43,-516.11 172.46,-540.61"/>
</g>
<!-- flask_wrappers&#45;&gt;flask_blueprints -->
<g id="edge35" class="edge">
<title>flask_wrappers&#45;&gt;flask_blueprints</title><style>.edge>path:hover{stroke-width:8}</style>
<path fill="none" stroke="black" d="M19.43,-270C16.63,-234.11 59.01,-216.02 92.88,-207.33"/>
<polygon fill="blue" stroke="black" points="93.56,-210.77 102.49,-205.08 91.96,-203.96 93.56,-210.77"/>
</g>
<!-- flask_wrappers&#45;&gt;flask_ctx -->
<g id="edge36" class="edge">
<title>flask_wrappers&#45;&gt;flask_ctx</title><style>.edge>path:hover{stroke-width:8}</style>
<path fill="none" stroke="black" d="M97.43,-416C93.54,-437.13 77.66,-455.95 63.96,-468.74"/>
<path fill="none" stroke="black" d="M99.18,-361.42C99.98,-372.78 100.47,-388.19 98.98,-402.94"/>
<polygon fill="blue" stroke="black" points="95.56,-402.11 97.64,-412.5 102.5,-403.08 95.56,-402.11"/>
</g>
<!-- flask_wrappers&#45;&gt;flask_helpers -->
<g id="edge38" class="edge">
<title>flask_wrappers&#45;&gt;flask_helpers</title><style>.edge>path:hover{stroke-width:8}</style>
<path fill="none" stroke="black" d="M131.46,-318.18C141.84,-310.92 153.24,-302.93 163.61,-295.68"/>
<polygon fill="blue" stroke="black" points="129.84,-315.05 123.65,-323.65 133.85,-320.78 129.84,-315.05"/>
<polygon fill="blue" stroke="black" points="165.35,-298.73 171.54,-290.13 161.34,-293 165.35,-298.73"/>
</g>
<!-- flask_wrappers&#45;&gt;flask_json -->
<g id="edge39" class="edge">
<title>flask_wrappers&#45;&gt;flask_json</title><style>.edge>path:hover{stroke-width:8}</style>
<path fill="none" stroke="black" d="M88.98,-313.81C87.61,-309.24 86.18,-304.5 84.81,-299.93"/>
<polygon fill="blue" stroke="black" points="85.58,-314.67 91.81,-323.25 92.29,-312.66 85.58,-314.67"/>
<polygon fill="blue" stroke="black" points="88.23,-299.13 82,-290.55 81.52,-301.14 88.23,-299.13"/>
</g>
<!-- load_data -->
<g id="node13" class="node">
<title>load_data</title><style>.edge>path:hover{stroke-width:8}</style>
<ellipse fill="#47c2c2" stroke="black" cx="514.43" cy="-199" rx="34.88" ry="18"/>
<text xml:space="preserve" text-anchor="middle" x="514.43" y="-195.5" font-family="Helvetica,sans-Serif" font-size="10.00" fill="#000000">load_data</text>
</g>
<!-- load_data&#45;&gt;app_py -->
<g id="edge40" class="edge">
<title>load_data&#45;&gt;app_py</title><style>.edge>path:hover{stroke-width:8}</style>
<path fill="none" stroke="black" d="M509.31,-180.82C502.77,-155.33 494.52,-106.86 514.43,-73"/>
</g>
<!-- query_data -->
<g id="node14" class="node">
<title>query_data</title><style>.edge>path:hover{stroke-width:8}</style>
<ellipse fill="#7f4cb3" stroke="black" cx="448.43" cy="-127" rx="38.49" ry="18"/>
<text xml:space="preserve" text-anchor="middle" x="448.43" y="-123.5" font-family="Helvetica,sans-Serif" font-size="10.00" fill="#ffffff">query_data</text>
</g>
<!-- load_data&#45;&gt;query_data -->
<g id="edge41" class="edge">
<title>load_data&#45;&gt;query_data</title><style>.edge>path:hover{stroke-width:8}</style>
<path fill="none" stroke="black" d="M499.79,-182.46C491.44,-173.62 480.81,-162.34 471.38,-152.34"/>
<polygon fill="#47c2c2" stroke="black" points="473.94,-149.95 464.54,-145.08 468.85,-154.76 473.94,-149.95"/>
</g>
<!-- query_data&#45;&gt;app_py -->
<g id="edge42" class="edge">
<title>query_data&#45;&gt;app_py</title><style>.edge>path:hover{stroke-width:8}</style>
<path fill="none" stroke="black" d="M472.64,-112.72C487.1,-103.49 504.53,-89.85 514.43,-73"/>
</g>
</g>
</svg>
