<?xml version="1.0" encoding="UTF-8" standalone="no"?>
<!DOCTYPE svg PUBLIC "-//W3C//DTD SVG 1.1//EN"
 "http://www.w3.org/Graphics/SVG/1.1/DTD/svg11.dtd">
<!-- Generated by graphviz version 13.0.1 (20250615.1724)
 -->
<!-- Title: G Pages: 1 -->
<svg width="1216pt" height="810pt"
 viewBox="0.00 0.00 1216.00 810.00" xmlns="http://www.w3.org/2000/svg" xmlns:xlink="http://www.w3.org/1999/xlink">
<g id="graph0" class="graph" transform="scale(1 1) rotate(0) translate(4 806.25)">
<title>G</title><style>.edge>path:hover{stroke-width:8}</style>
<polygon fill="white" stroke="none" points="-4,4 -4,-806.25 1212.11,-806.25 1212.11,4 -4,4"/>
<!-- __future__ -->
<g id="node1" class="node">
<title>__future__</title><style>.edge>path:hover{stroke-width:8}</style>
<ellipse fill="#f91010" stroke="black" cx="718" cy="-784.25" rx="37.13" ry="18"/>
<text xml:space="preserve" text-anchor="middle" x="718" y="-780.75" font-family="Helvetica,sans-Serif" font-size="10.00" fill="#ffffff">__future__</text>
</g>
<!-- flask -->
<g id="node4" class="node">
<title>flask</title><style>.edge>path:hover{stroke-width:8}</style>
<polygon fill="blue" stroke="black" points="478,-145 424,-145 424,-109 478,-109 478,-145"/>
<text xml:space="preserve" text-anchor="middle" x="451" y="-123.5" font-family="Helvetica,sans-Serif" font-size="10.00" fill="white">flask</text>
</g>
<!-- __future__&#45;&gt;flask -->
<g id="edge1" class="edge">
<title>__future__&#45;&gt;flask</title><style>.edge>path:hover{stroke-width:8}</style>
<path fill="none" stroke="black" d="M860,-711.25C913.03,-634.75 923.18,-613.15 982,-541 1002.27,-516.14 1029.43,-520.04 1031,-488"/>
<path fill="none" stroke="black" d="M1031,-486C1025.03,-361.86 914.32,-378.94 851,-272"/>
</g>
<!-- flask_app -->
<g id="node5" class="node">
<title>flask_app</title><style>.edge>path:hover{stroke-width:8}</style>
<polygon fill="blue" stroke="black" points="459.88,-581.63 404.12,-581.63 404.12,-545.63 459.88,-545.63 459.88,-581.63"/>
<text xml:space="preserve" text-anchor="middle" x="432" y="-560.13" font-family="Helvetica,sans-Serif" font-size="10.00" fill="white">flask.app</text>
</g>
<!-- __future__&#45;&gt;flask_app -->
<g id="edge2" class="edge">
<title>__future__&#45;&gt;flask_app</title><style>.edge>path:hover{stroke-width:8}</style>
<path fill="none" stroke="black" d="M489,-711.25C454.52,-680.93 418.56,-686.84 413,-641.25"/>
</g>
<!-- flask_blueprints -->
<g id="node6" class="node">
<title>flask_blueprints</title><style>.edge>path:hover{stroke-width:8}</style>
<polygon fill="blue" stroke="black" points="480,-217 422,-217 422,-181 480,-181 480,-217"/>
<text xml:space="preserve" text-anchor="middle" x="451" y="-201.5" font-family="Helvetica,sans-Serif" font-size="10.00" fill="white">flask.</text>
<text xml:space="preserve" text-anchor="middle" x="451" y="-189.5" font-family="Helvetica,sans-Serif" font-size="10.00" fill="white">blueprints</text>
</g>
<!-- __future__&#45;&gt;flask_blueprints -->
<g id="edge3" class="edge">
<title>__future__&#45;&gt;flask_blueprints</title><style>.edge>path:hover{stroke-width:8}</style>
<path fill="none" stroke="black" d="M489,-711.25C456.21,-678.39 423.15,-697.9 399,-658.25 371.88,-613.72 387.63,-592.62 395,-541 404.43,-475 405.19,-455.59 437,-397 457.15,-359.89 471.21,-356.8 499,-325 519.72,-301.29 565.07,-297.05 546,-272"/>
<path fill="none" stroke="black" d="M546,-270C530.78,-250.68 508.94,-234.08 490.03,-221.91"/>
<polygon fill="#f91010" stroke="black" points="492.09,-219.06 481.75,-216.75 488.39,-225.01 492.09,-219.06"/>
<path fill="none" stroke="black" d="M680.85,-783.14C629.64,-780.83 538.11,-768.61 489,-713.25"/>
</g>
<!-- flask_config -->
<g id="node7" class="node">
<title>flask_config</title><style>.edge>path:hover{stroke-width:8}</style>
<ellipse fill="#59a446" stroke="black" cx="857" cy="-563.63" rx="39.84" ry="18"/>
<text xml:space="preserve" text-anchor="middle" x="857" y="-560.13" font-family="Helvetica,sans-Serif" font-size="10.00" fill="#000000">flask.config</text>
</g>
<!-- __future__&#45;&gt;flask_config -->
<g id="edge4" class="edge">
<title>__future__&#45;&gt;flask_config</title><style>.edge>path:hover{stroke-width:8}</style>
<path fill="none" stroke="black" d="M811,-639.25C806.74,-620.32 818.14,-601.73 830.66,-587.84"/>
<polygon fill="#f91010" stroke="black" points="832.93,-590.52 837.41,-580.92 827.92,-585.63 832.93,-590.52"/>
</g>
<!-- flask_ctx -->
<g id="node8" class="node">
<title>flask_ctx</title><style>.edge>path:hover{stroke-width:8}</style>
<polygon fill="blue" stroke="black" points="647,-505 593,-505 593,-469 647,-469 647,-505"/>
<text xml:space="preserve" text-anchor="middle" x="620" y="-483.5" font-family="Helvetica,sans-Serif" font-size="10.00" fill="white">flask.ctx</text>
</g>
<!-- __future__&#45;&gt;flask_ctx -->
<g id="edge5" class="edge">
<title>__future__&#45;&gt;flask_ctx</title><style>.edge>path:hover{stroke-width:8}</style>
<path fill="none" stroke="black" d="M620,-562.63C625.29,-548.07 625.64,-530.84 624.51,-516.6"/>
<polygon fill="#f91010" stroke="black" points="628.02,-516.54 623.45,-506.98 621.06,-517.3 628.02,-516.54"/>
</g>
<!-- flask_globals -->
<g id="node9" class="node">
<title>flask_globals</title><style>.edge>path:hover{stroke-width:8}</style>
<polygon fill="blue" stroke="black" points="598.38,-433 527.62,-433 527.62,-397 598.38,-397 598.38,-433"/>
<text xml:space="preserve" text-anchor="middle" x="563" y="-411.5" font-family="Helvetica,sans-Serif" font-size="10.00" fill="white">flask.globals</text>
</g>
<!-- __future__&#45;&gt;flask_globals -->
<g id="edge6" class="edge">
<title>__future__&#45;&gt;flask_globals</title><style>.edge>path:hover{stroke-width:8}</style>
<path fill="none" stroke="black" d="M489,-711.25C452.8,-679.42 518.43,-657.8 551,-622.25 577.99,-592.8 606.36,-602.18 620,-564.63"/>
<path fill="none" stroke="black" d="M620,-562.63C627.86,-533.47 595.62,-532.87 584,-505 575.87,-485.5 570.52,-462.22 567.25,-444.37"/>
<polygon fill="#f91010" stroke="black" points="570.74,-444.01 565.61,-434.74 563.84,-445.18 570.74,-444.01"/>
</g>
<!-- flask_helpers -->
<g id="node10" class="node">
<title>flask_helpers</title><style>.edge>path:hover{stroke-width:8}</style>
<polygon fill="blue" stroke="black" points="365.75,-289 294.25,-289 294.25,-253 365.75,-253 365.75,-289"/>
<text xml:space="preserve" text-anchor="middle" x="330" y="-267.5" font-family="Helvetica,sans-Serif" font-size="10.00" fill="white">flask.helpers</text>
</g>
<!-- __future__&#45;&gt;flask_helpers -->
<g id="edge7" class="edge">
<title>__future__&#45;&gt;flask_helpers</title><style>.edge>path:hover{stroke-width:8}</style>
<path fill="none" stroke="black" d="M76,-562.63C50.16,-452.36 74.28,-388.58 168,-325 202.76,-301.42 248.78,-287.69 282.89,-280.14"/>
<polygon fill="#f91010" stroke="black" points="283.42,-283.61 292.48,-278.13 281.98,-276.76 283.42,-283.61"/>
</g>
<!-- flask_json -->
<g id="node11" class="node">
<title>flask_json</title><style>.edge>path:hover{stroke-width:8}</style>
<polygon fill="blue" stroke="black" points="808,-289 750,-289 750,-253 808,-253 808,-289"/>
<text xml:space="preserve" text-anchor="middle" x="779" y="-267.5" font-family="Helvetica,sans-Serif" font-size="10.00" fill="white">flask.json</text>
</g>
<!-- __future__&#45;&gt;flask_json -->
<g id="edge8" class="edge">
<title>__future__&#45;&gt;flask_json</title><style>.edge>path:hover{stroke-width:8}</style>
<path fill="none" stroke="black" d="M811,-639.25C787.39,-534.21 823.86,-503.77 810,-397 806.86,-372.84 801.91,-367.64 796,-344"/>
<path fill="none" stroke="black" d="M752.05,-776.44C785.43,-767.82 834.87,-749.51 860,-713.25"/>
<path fill="none" stroke="black" d="M860,-711.25C881.63,-680.04 817.64,-678.65 811,-641.25"/>
</g>
<!-- flask_signals -->
<g id="node12" class="node">
<title>flask_signals</title><style>.edge>path:hover{stroke-width:8}</style>
<ellipse fill="#42e619" stroke="black" cx="147" cy="-640.25" rx="42.54" ry="18"/>
<text xml:space="preserve" text-anchor="middle" x="147" y="-636.75" font-family="Helvetica,sans-Serif" font-size="10.00" fill="#000000">flask.signals</text>
</g>
<!-- __future__&#45;&gt;flask_signals -->
<g id="edge9" class="edge">
<title>__future__&#45;&gt;flask_signals</title><style>.edge>path:hover{stroke-width:8}</style>
<path fill="none" stroke="black" d="M76,-711.25C64.62,-690.45 85.76,-671.86 107.87,-659.08"/>
<polygon fill="#f91010" stroke="black" points="109.51,-662.17 116.65,-654.34 106.19,-656.01 109.51,-662.17"/>
</g>
<!-- flask_templating -->
<g id="node13" class="node">
<title>flask_templating</title><style>.edge>path:hover{stroke-width:8}</style>
<polygon fill="blue" stroke="black" points="360.5,-217 299.5,-217 299.5,-181 360.5,-181 360.5,-217"/>
<text xml:space="preserve" text-anchor="middle" x="330" y="-201.5" font-family="Helvetica,sans-Serif" font-size="10.00" fill="white">flask.</text>
<text xml:space="preserve" text-anchor="middle" x="330" y="-189.5" font-family="Helvetica,sans-Serif" font-size="10.00" fill="white">templating</text>
</g>
<!-- __future__&#45;&gt;flask_templating -->
<g id="edge10" class="edge">
<title>__future__&#45;&gt;flask_templating</title><style>.edge>path:hover{stroke-width:8}</style>
<path fill="none" stroke="black" d="M38,-414C28.79,-343.01 60.55,-319.62 114,-272"/>
<path fill="none" stroke="black" d="M114,-270C161.99,-224.28 240.11,-208.42 288.09,-202.92"/>
<polygon fill="#f91010" stroke="black" points="288.22,-206.43 297.8,-201.92 287.5,-199.46 288.22,-206.43"/>
<path fill="none" stroke="black" d="M76,-711.25C44.73,-654.08 92.38,-627.7 76,-564.63"/>
<path fill="none" stroke="black" d="M76,-562.63C61.32,-496.93 41.4,-483.23 38,-416"/>
<path fill="none" stroke="black" d="M680.85,-782.58C548.46,-779.74 106.05,-766.3 76,-713.25"/>
</g>
<!-- flask_wrappers -->
<g id="node14" class="node">
<title>flask_wrappers</title><style>.edge>path:hover{stroke-width:8}</style>
<polygon fill="blue" stroke="black" points="729.88,-361 650.12,-361 650.12,-325 729.88,-325 729.88,-361"/>
<text xml:space="preserve" text-anchor="middle" x="690" y="-339.5" font-family="Helvetica,sans-Serif" font-size="10.00" fill="white">flask.wrappers</text>
</g>
<!-- __future__&#45;&gt;flask_wrappers -->
<g id="edge11" class="edge">
<title>__future__&#45;&gt;flask_wrappers</title><style>.edge>path:hover{stroke-width:8}</style>
<path fill="none" stroke="black" d="M489,-711.25C481.45,-703.76 628.27,-595.21 634,-586.25 677.46,-518.36 687.32,-420.61 689.47,-372.69"/>
<polygon fill="#f91010" stroke="black" points="692.96,-372.99 689.81,-362.87 685.96,-372.74 692.96,-372.99"/>
</g>
<!-- importlib_metadata -->
<g id="node16" class="node">
<title>importlib_metadata</title><style>.edge>path:hover{stroke-width:8}</style>
<ellipse fill="#33995c" stroke="black" cx="1031" cy="-563.63" rx="39.95" ry="22.63"/>
<text xml:space="preserve" text-anchor="middle" x="1031" y="-566.13" font-family="Helvetica,sans-Serif" font-size="10.00" fill="#ffffff">importlib.</text>
<text xml:space="preserve" text-anchor="middle" x="1031" y="-554.13" font-family="Helvetica,sans-Serif" font-size="10.00" fill="#ffffff">metadata</text>
</g>
<!-- __future__&#45;&gt;importlib_metadata -->
<g id="edge12" class="edge">
<title>__future__&#45;&gt;importlib_metadata</title><style>.edge>path:hover{stroke-width:8}</style>
<path fill="none" stroke="black" d="M754.02,-779.17C819.91,-771.27 956.94,-752.66 999,-730.25 1038.67,-709.13 1052.95,-699.84 1070,-658.25 1078.93,-636.47 1067.9,-611.91 1055.32,-593.4"/>
<polygon fill="#f91010" stroke="black" points="1058.31,-591.57 1049.59,-585.55 1052.65,-595.69 1058.31,-591.57"/>
</g>
<!-- app_py -->
<g id="node2" class="node">
<title>app_py</title><style>.edge>path:hover{stroke-width:8}</style>
<ellipse fill="#997c52" stroke="black" cx="1135" cy="-18" rx="27.21" ry="18"/>
<text xml:space="preserve" text-anchor="middle" x="1135" y="-14.5" font-family="Helvetica,sans-Serif" font-size="10.00" fill="#000000">app.py</text>
</g>
<!-- datetime -->
<g id="node3" class="node">
<title>datetime</title><style>.edge>path:hover{stroke-width:8}</style>
<ellipse fill="#b8db2f" stroke="black" cx="413" cy="-712.25" rx="32.17" ry="18"/>
<text xml:space="preserve" text-anchor="middle" x="413" y="-708.75" font-family="Helvetica,sans-Serif" font-size="10.00" fill="#000000">datetime</text>
</g>
<!-- datetime&#45;&gt;flask_app -->
<g id="edge13" class="edge">
<title>datetime&#45;&gt;flask_app</title><style>.edge>path:hover{stroke-width:8}</style>
<path fill="none" stroke="black" d="M414.16,-693.92C414.84,-679.72 415.18,-659.11 413,-641.25"/>
<path fill="none" stroke="black" d="M413,-639.25C411.07,-623.44 415.06,-606.18 419.86,-592.25"/>
<polygon fill="#b8db2f" stroke="black" points="422.99,-593.88 423.26,-583.29 416.44,-591.4 422.99,-593.88"/>
</g>
<!-- datetime&#45;&gt;flask_blueprints -->
<g id="edge14" class="edge">
<title>datetime&#45;&gt;flask_blueprints</title><style>.edge>path:hover{stroke-width:8}</style>
<path fill="none" stroke="black" d="M261,-486C247.25,-382.81 218.39,-333 285,-253 321.45,-209.23 354.12,-235.49 408,-217 408.96,-216.67 409.94,-216.33 410.92,-215.98"/>
<polygon fill="#b8db2f" stroke="black" points="411.94,-219.34 420.1,-212.59 409.51,-212.77 411.94,-219.34"/>
</g>
<!-- datetime&#45;&gt;flask_helpers -->
<g id="edge15" class="edge">
<title>datetime&#45;&gt;flask_helpers</title><style>.edge>path:hover{stroke-width:8}</style>
<path fill="none" stroke="black" d="M390.89,-698.73C375.61,-689.2 355.65,-674.91 342,-658.25 288.87,-593.46 278.87,-569.87 261,-488"/>
<path fill="none" stroke="black" d="M261,-486C236.45,-419.33 281.68,-339.3 309.88,-298.6"/>
<polygon fill="#b8db2f" stroke="black" points="312.63,-300.77 315.58,-290.59 306.93,-296.71 312.63,-300.77"/>
</g>
<!-- load_data -->
<g id="node18" class="node">
<title>load_data</title><style>.edge>path:hover{stroke-width:8}</style>
<ellipse fill="#3d6eb8" stroke="black" cx="1026" cy="-640.25" rx="34.88" ry="18"/>
<text xml:space="preserve" text-anchor="middle" x="1026" y="-636.75" font-family="Helvetica,sans-Serif" font-size="10.00" fill="#ffffff">load_data</text>
</g>
<!-- datetime&#45;&gt;load_data -->
<g id="edge16" class="edge">
<title>datetime&#45;&gt;load_data</title><style>.edge>path:hover{stroke-width:8}</style>
<path fill="none" stroke="black" d="M440.54,-702.61C451.21,-699.55 463.58,-696.35 475,-694.25 660.1,-660.24 884.44,-647.25 979.67,-643.02"/>
<polygon fill="#b8db2f" stroke="black" points="979.55,-646.53 989.39,-642.61 979.25,-639.54 979.55,-646.53"/>
</g>
<!-- flask&#45;&gt;app_py -->
<g id="edge17" class="edge">
<title>flask&#45;&gt;app_py</title><style>.edge>path:hover{stroke-width:8}</style>
<path fill="none" stroke="black" d="M478.36,-126.1C600.49,-126.26 1091.71,-123.74 1135,-73"/>
<path fill="none" stroke="black" d="M1135,-72C1140.81,-65.19 1142.21,-55.89 1141.7,-46.99"/>
<polygon fill="blue" stroke="black" points="1145.19,-46.68 1140.36,-37.25 1138.26,-47.63 1145.19,-46.68"/>
</g>
<!-- flask_app&#45;&gt;flask -->
<g id="edge18" class="edge">
<title>flask_app&#45;&gt;flask</title><style>.edge>path:hover{stroke-width:8}</style>
<path fill="none" stroke="black" d="M427.49,-545.37C411.2,-481.51 358.21,-259.18 394,-200"/>
</g>
<!-- flask_app&#45;&gt;flask_ctx -->
<g id="edge19" class="edge">
<title>flask_app&#45;&gt;flask_ctx</title><style>.edge>path:hover{stroke-width:8}</style>
<path fill="none" stroke="black" d="M470.34,-543.07C471.91,-542.36 473.47,-541.66 475,-541 510.66,-525.57 552.44,-510.62 581.96,-500.55"/>
<polygon fill="blue" stroke="black" points="468.91,-539.87 461.37,-547.31 471.9,-546.2 468.91,-539.87"/>
<polygon fill="blue" stroke="black" points="582.86,-503.95 591.21,-497.43 580.61,-497.32 582.86,-503.95"/>
</g>
<!-- flask_app&#45;&gt;flask_globals -->
<g id="edge20" class="edge">
<title>flask_app&#45;&gt;flask_globals</title><style>.edge>path:hover{stroke-width:8}</style>
<path fill="none" stroke="black" d="M440.02,-534.42C446.81,-514.4 458.16,-487.84 475,-469 486.69,-455.93 502.38,-445.08 517.27,-436.68"/>
<polygon fill="blue" stroke="black" points="436.7,-533.31 437,-543.9 443.37,-535.43 436.7,-533.31"/>
<polygon fill="blue" stroke="black" points="518.9,-439.77 526.06,-431.97 515.59,-433.6 518.9,-439.77"/>
</g>
<!-- flask_app&#45;&gt;flask_templating -->
<g id="edge21" class="edge">
<title>flask_app&#45;&gt;flask_templating</title><style>.edge>path:hover{stroke-width:8}</style>
<path fill="none" stroke="black" d="M405.23,-537.21C395.77,-527.58 385.41,-516.21 377,-505 310.46,-416.26 280.76,-396.12 252,-289 247.85,-273.55 244.51,-267.14 252,-253 260.09,-237.72 274.79,-226.02 289.25,-217.56"/>
<polygon fill="blue" stroke="black" points="402.61,-539.55 412.17,-544.13 407.56,-534.59 402.61,-539.55"/>
<polygon fill="blue" stroke="black" points="290.69,-220.76 297.82,-212.93 287.36,-214.6 290.69,-220.76"/>
</g>
<!-- flask_blueprints&#45;&gt;flask -->
<g id="edge22" class="edge">
<title>flask_blueprints&#45;&gt;flask</title><style>.edge>path:hover{stroke-width:8}</style>
<path fill="none" stroke="black" d="M451,-180.7C451,-173.41 451,-164.73 451,-156.54"/>
<polygon fill="blue" stroke="black" points="454.5,-156.62 451,-146.62 447.5,-156.62 454.5,-156.62"/>
</g>
<!-- flask_config&#45;&gt;flask -->
<g id="edge23" class="edge">
<title>flask_config&#45;&gt;flask</title><style>.edge>path:hover{stroke-width:8}</style>
<path fill="none" stroke="black" d="M857.21,-545.58C857.34,-515.42 856.47,-450.76 848,-397 844.21,-372.93 831.18,-368.2 834,-344"/>
</g>
<!-- flask_ctx&#45;&gt;flask -->
<g id="edge24" class="edge">
<title>flask_ctx&#45;&gt;flask</title><style>.edge>path:hover{stroke-width:8}</style>
<path fill="none" stroke="black" d="M646.37,-468.6C675.84,-447.32 721.67,-408.26 739,-361 744.51,-345.98 744.83,-339.9 739,-325 727.31,-295.13 666.96,-294.32 690,-272"/>
</g>
<!-- flask_ctx&#45;&gt;flask_globals -->
<g id="edge26" class="edge">
<title>flask_ctx&#45;&gt;flask_globals</title><style>.edge>path:hover{stroke-width:8}</style>
<path fill="none" stroke="black" d="M598.66,-459.8C593.89,-453.94 588.84,-447.73 584.08,-441.89"/>
<polygon fill="blue" stroke="black" points="595.93,-461.98 604.95,-467.52 601.35,-457.56 595.93,-461.98"/>
<polygon fill="blue" stroke="black" points="586.91,-439.82 577.88,-434.28 581.48,-444.24 586.91,-439.82"/>
</g>
<!-- flask_globals&#45;&gt;flask -->
<g id="edge27" class="edge">
<title>flask_globals&#45;&gt;flask</title><style>.edge>path:hover{stroke-width:8}</style>
<path fill="none" stroke="black" d="M546,-342C549.28,-270.91 638.89,-321.51 690,-272"/>
</g>
<!-- flask_globals&#45;&gt;flask_blueprints -->
<g id="edge29" class="edge">
<title>flask_globals&#45;&gt;flask_blueprints</title><style>.edge>path:hover{stroke-width:8}</style>
<path fill="none" stroke="black" d="M546,-342C549.48,-311.08 564.52,-297 546,-272"/>
</g>
<!-- flask_globals&#45;&gt;flask_helpers -->
<g id="edge31" class="edge">
<title>flask_globals&#45;&gt;flask_helpers</title><style>.edge>path:hover{stroke-width:8}</style>
<path fill="none" stroke="black" d="M527.28,-398.67C499.86,-386.05 461.79,-366.59 432,-344"/>
</g>
<!-- flask_globals&#45;&gt;flask_json -->
<g id="edge32" class="edge">
<title>flask_globals&#45;&gt;flask_json</title><style>.edge>path:hover{stroke-width:8}</style>
<path fill="none" stroke="black" d="M574.28,-396.68C587.94,-376.9 612.69,-344.74 641,-325 670.74,-304.26 709.67,-290.28 738.6,-281.9"/>
<polygon fill="blue" stroke="black" points="739.39,-285.31 748.09,-279.27 737.52,-278.57 739.39,-285.31"/>
</g>
<!-- flask_globals&#45;&gt;flask_templating -->
<g id="edge33" class="edge">
<title>flask_globals&#45;&gt;flask_templating</title><style>.edge>path:hover{stroke-width:8}</style>
<path fill="none" stroke="black" d="M555.26,-396.67C549.85,-382.64 543.94,-362.27 546,-344"/>
<path fill="none" stroke="black" d="M546,-342C550.65,-300.69 435.43,-244.79 371.41,-217.06"/>
<polygon fill="blue" stroke="black" points="372.81,-213.86 362.24,-213.14 370.05,-220.29 372.81,-213.86"/>
</g>
<!-- flask_globals&#45;&gt;flask_wrappers -->
<g id="edge34" class="edge">
<title>flask_globals&#45;&gt;flask_wrappers</title><style>.edge>path:hover{stroke-width:8}</style>
<path fill="none" stroke="black" d="M604.73,-391C618.87,-383.21 634.65,-374.51 648.76,-366.73"/>
<polygon fill="blue" stroke="black" points="603.11,-387.89 596.05,-395.79 606.49,-394.02 603.11,-387.89"/>
<polygon fill="blue" stroke="black" points="650.29,-369.88 657.36,-361.99 646.91,-363.75 650.29,-369.88"/>
</g>
<!-- flask_helpers&#45;&gt;flask -->
<g id="edge35" class="edge">
<title>flask_helpers&#45;&gt;flask</title><style>.edge>path:hover{stroke-width:8}</style>
<path fill="none" stroke="black" d="M394,-198C403.4,-182.46 415.97,-166.65 426.91,-153.99"/>
<polygon fill="blue" stroke="black" points="429.52,-156.33 433.52,-146.52 424.27,-151.69 429.52,-156.33"/>
<path fill="none" stroke="black" d="M349.57,-252.62C363.53,-239.36 381.9,-220.01 394,-200"/>
</g>
<!-- flask_helpers&#45;&gt;flask_app -->
<g id="edge36" class="edge">
<title>flask_helpers&#45;&gt;flask_app</title><style>.edge>path:hover{stroke-width:8}</style>
<path fill="none" stroke="black" d="M331.36,-289.23C333,-307.29 336.29,-336.4 342,-361 357.55,-428.05 367.53,-443.79 399,-505 404.19,-515.09 410.26,-525.94 415.78,-535.47"/>
<polygon fill="blue" stroke="black" points="412.64,-537.03 420.71,-543.89 418.68,-533.49 412.64,-537.03"/>
</g>
<!-- flask_helpers&#45;&gt;flask_blueprints -->
<g id="edge37" class="edge">
<title>flask_helpers&#45;&gt;flask_blueprints</title><style>.edge>path:hover{stroke-width:8}</style>
<path fill="none" stroke="black" d="M360.22,-252.52C375.9,-243.44 395.24,-232.26 412.03,-222.54"/>
<polygon fill="blue" stroke="black" points="413.37,-225.81 420.27,-217.78 409.86,-219.75 413.37,-225.81"/>
</g>
<!-- flask_helpers&#45;&gt;flask_templating -->
<g id="edge38" class="edge">
<title>flask_helpers&#45;&gt;flask_templating</title><style>.edge>path:hover{stroke-width:8}</style>
<path fill="none" stroke="black" d="M330,-252.7C330,-245.41 330,-236.73 330,-228.54"/>
<polygon fill="blue" stroke="black" points="333.5,-228.62 330,-218.62 326.5,-228.62 333.5,-228.62"/>
</g>
<!-- flask_json&#45;&gt;flask -->
<g id="edge40" class="edge">
<title>flask_json&#45;&gt;flask</title><style>.edge>path:hover{stroke-width:8}</style>
<path fill="none" stroke="black" d="M784.31,-252.68C787.88,-237.31 790.15,-215.03 779,-200"/>
</g>
<!-- flask_signals&#45;&gt;flask -->
<g id="edge42" class="edge">
<title>flask_signals&#45;&gt;flask</title><style>.edge>path:hover{stroke-width:8}</style>
<path fill="none" stroke="black" d="M139.69,-622.29C133.11,-607.11 123.1,-584.3 114,-564.63"/>
<path fill="none" stroke="black" d="M114,-562.63C67.97,-463.18 0,-453.58 0,-344 0,-344 0,-344 0,-270 0,-183.86 303.14,-143.52 412.36,-131.78"/>
<polygon fill="#42e619" stroke="black" points="412.72,-135.26 422.3,-130.74 411.99,-128.3 412.72,-135.26"/>
</g>
<!-- flask_signals&#45;&gt;flask_app -->
<g id="edge43" class="edge">
<title>flask_signals&#45;&gt;flask_app</title><style>.edge>path:hover{stroke-width:8}</style>
<path fill="none" stroke="black" d="M182.52,-629.95C236.13,-615.92 337.33,-589.42 392.95,-574.85"/>
<polygon fill="#42e619" stroke="black" points="393.51,-578.32 402.3,-572.4 391.74,-571.55 393.51,-578.32"/>
</g>
<!-- flask_signals&#45;&gt;flask_ctx -->
<g id="edge44" class="edge">
<title>flask_signals&#45;&gt;flask_ctx</title><style>.edge>path:hover{stroke-width:8}</style>
<path fill="none" stroke="black" d="M189.62,-637.79C252.69,-634.42 373.66,-623.23 469,-586.25 515.05,-568.4 561.74,-535.18 590.76,-512.36"/>
<polygon fill="#42e619" stroke="black" points="592.73,-515.26 598.36,-506.29 588.36,-509.79 592.73,-515.26"/>
</g>
<!-- flask_signals&#45;&gt;flask_helpers -->
<g id="edge45" class="edge">
<title>flask_signals&#45;&gt;flask_helpers</title><style>.edge>path:hover{stroke-width:8}</style>
<path fill="none" stroke="black" d="M114,-486C93.75,-404.24 150.77,-380.66 214,-325 233.85,-307.52 260.44,-294.82 283.14,-286.24"/>
<polygon fill="#42e619" stroke="black" points="284.29,-289.54 292.51,-282.86 281.92,-282.96 284.29,-289.54"/>
</g>
<!-- flask_signals&#45;&gt;flask_templating -->
<g id="edge46" class="edge">
<title>flask_signals&#45;&gt;flask_templating</title><style>.edge>path:hover{stroke-width:8}</style>
<path fill="none" stroke="black" d="M114,-486C103.92,-441.2 43.91,-461.54 38,-416"/>
<path fill="none" stroke="black" d="M114,-562.63C100.07,-532.53 121.28,-520.36 114,-488"/>
</g>
<!-- flask_templating&#45;&gt;flask -->
<g id="edge47" class="edge">
<title>flask_templating&#45;&gt;flask</title><style>.edge>path:hover{stroke-width:8}</style>
<path fill="none" stroke="black" d="M360.22,-180.52C376.49,-171.11 396.69,-159.42 413.9,-149.46"/>
<polygon fill="blue" stroke="black" points="415.43,-152.62 422.33,-144.59 411.92,-146.56 415.43,-152.62"/>
</g>
<!-- flask_wrappers&#45;&gt;flask -->
<g id="edge49" class="edge">
<title>flask_wrappers&#45;&gt;flask</title><style>.edge>path:hover{stroke-width:8}</style>
<path fill="none" stroke="black" d="M683.8,-324.59C679.31,-308.5 676.17,-285.15 690,-272"/>
</g>
<!-- flask_wrappers&#45;&gt;flask_app -->
<g id="edge50" class="edge">
<title>flask_wrappers&#45;&gt;flask_app</title><style>.edge>path:hover{stroke-width:8}</style>
<path fill="none" stroke="black" d="M664,-416C655.91,-426.25 475.99,-533.95 465,-541 462.81,-542.41 460.54,-543.87 458.27,-545.35"/>
<path fill="none" stroke="black" d="M686.73,-361.31C683.84,-373.62 678.75,-390.43 670.35,-404.65"/>
<polygon fill="blue" stroke="black" points="667.58,-402.51 664.85,-412.75 673.37,-406.45 667.58,-402.51"/>
</g>
<!-- flask_wrappers&#45;&gt;flask_blueprints -->
<g id="edge51" class="edge">
<title>flask_wrappers&#45;&gt;flask_blueprints</title><style>.edge>path:hover{stroke-width:8}</style>
<path fill="none" stroke="black" d="M649.81,-333.36C616.59,-324.02 570.98,-305.73 546,-272"/>
</g>
<!-- flask_wrappers&#45;&gt;flask_ctx -->
<g id="edge52" class="edge">
<title>flask_wrappers&#45;&gt;flask_ctx</title><style>.edge>path:hover{stroke-width:8}</style>
<path fill="none" stroke="black" d="M664,-416C650.67,-432.91 637.85,-454.03 629.53,-468.63"/>
</g>
<!-- flask_wrappers&#45;&gt;flask_helpers -->
<g id="edge54" class="edge">
<title>flask_wrappers&#45;&gt;flask_helpers</title><style>.edge>path:hover{stroke-width:8}</style>
<path fill="none" stroke="black" d="M638.89,-332.06C569.15,-318.5 445.14,-294.39 377.39,-281.22"/>
<polygon fill="blue" stroke="black" points="637.78,-335.41 648.27,-333.88 639.12,-328.54 637.78,-335.41"/>
<polygon fill="blue" stroke="black" points="378.19,-277.81 367.71,-279.33 376.86,-284.68 378.19,-277.81"/>
</g>
<!-- flask_wrappers&#45;&gt;flask_json -->
<g id="edge55" class="edge">
<title>flask_wrappers&#45;&gt;flask_json</title><style>.edge>path:hover{stroke-width:8}</style>
<path fill="none" stroke="black" d="M720.76,-317.81C729.59,-310.86 739.23,-303.28 748.08,-296.32"/>
<polygon fill="blue" stroke="black" points="718.89,-314.83 713.19,-323.76 723.21,-320.33 718.89,-314.83"/>
<polygon fill="blue" stroke="black" points="750.06,-299.22 755.75,-290.28 745.73,-293.71 750.06,-299.22"/>
</g>
<!-- importlib -->
<g id="node15" class="node">
<title>importlib</title><style>.edge>path:hover{stroke-width:8}</style>
<ellipse fill="#26d96e" stroke="black" cx="478" cy="-415" rx="31.72" ry="18"/>
<text xml:space="preserve" text-anchor="middle" x="478" y="-411.5" font-family="Helvetica,sans-Serif" font-size="10.00" fill="#000000">importlib</text>
</g>
<!-- importlib&#45;&gt;flask -->
<g id="edge56" class="edge">
<title>importlib&#45;&gt;flask</title><style>.edge>path:hover{stroke-width:8}</style>
<path fill="none" stroke="black" d="M690,-270C726.47,-235.32 808.98,-240.42 779,-200"/>
<path fill="none" stroke="black" d="M779,-198C744.81,-151.9 568.79,-135.29 489.63,-130.09"/>
<polygon fill="#26d96e" stroke="black" points="489.95,-126.6 479.75,-129.47 489.52,-133.59 489.95,-126.6"/>
<path fill="none" stroke="black" d="M484.06,-397.11C492.07,-377.14 508,-344.19 532,-325 589.85,-278.74 636.33,-323.04 690,-272"/>
</g>
<!-- importlib&#45;&gt;flask_helpers -->
<g id="edge57" class="edge">
<title>importlib&#45;&gt;flask_helpers</title><style>.edge>path:hover{stroke-width:8}</style>
<path fill="none" stroke="black" d="M470.99,-397.18C463.54,-381.29 450.31,-357.88 432,-344"/>
<path fill="none" stroke="black" d="M432,-342C410.77,-325.9 386.17,-308.97 366.44,-295.79"/>
<polygon fill="#26d96e" stroke="black" points="368.43,-292.91 358.16,-290.29 364.56,-298.74 368.43,-292.91"/>
</g>
<!-- importlib_metadata&#45;&gt;flask -->
<g id="edge58" class="edge">
<title>importlib_metadata&#45;&gt;flask</title><style>.edge>path:hover{stroke-width:8}</style>
<path fill="none" stroke="black" d="M1030.44,-540.74C1030.19,-525.85 1030.13,-505.73 1031,-488"/>
</g>
<!-- json -->
<g id="node17" class="node">
<title>json</title><style>.edge>path:hover{stroke-width:8}</style>
<ellipse fill="#2fdbdb" stroke="black" cx="963" cy="-712.25" rx="27" ry="18"/>
<text xml:space="preserve" text-anchor="middle" x="963" y="-708.75" font-family="Helvetica,sans-Serif" font-size="10.00" fill="#000000">json</text>
</g>
<!-- json&#45;&gt;flask_config -->
<g id="edge59" class="edge">
<title>json&#45;&gt;flask_config</title><style>.edge>path:hover{stroke-width:8}</style>
<path fill="none" stroke="black" d="M951.66,-695.56C933.44,-670.36 897.49,-620.63 875.51,-590.23"/>
<polygon fill="#2fdbdb" stroke="black" points="878.49,-588.38 869.8,-582.33 872.82,-592.48 878.49,-588.38"/>
</g>
<!-- json&#45;&gt;flask_json -->
<g id="edge60" class="edge">
<title>json&#45;&gt;flask_json</title><style>.edge>path:hover{stroke-width:8}</style>
<path fill="none" stroke="black" d="M963,-639.25C992.52,-499.95 864.04,-354.52 806.08,-297.28"/>
<polygon fill="#2fdbdb" stroke="black" points="808.77,-295 799.16,-290.54 803.88,-300.02 808.77,-295"/>
<path fill="none" stroke="black" d="M961.01,-694.07C959.83,-679.77 959.2,-658.96 963,-641.25"/>
</g>
<!-- json&#45;&gt;importlib_metadata -->
<g id="edge61" class="edge">
<title>json&#45;&gt;importlib_metadata</title><style>.edge>path:hover{stroke-width:8}</style>
<path fill="none" stroke="black" d="M963,-639.25C967.31,-618.9 982.25,-601.38 997.02,-588.44"/>
<polygon fill="#2fdbdb" stroke="black" points="998.96,-591.38 1004.46,-582.32 994.51,-585.97 998.96,-591.38"/>
</g>
<!-- json&#45;&gt;load_data -->
<g id="edge62" class="edge">
<title>json&#45;&gt;load_data</title><style>.edge>path:hover{stroke-width:8}</style>
<path fill="none" stroke="black" d="M976.36,-696.41C984.49,-687.38 995.06,-675.63 1004.35,-665.31"/>
<polygon fill="#2fdbdb" stroke="black" points="1006.68,-667.95 1010.77,-658.18 1001.48,-663.27 1006.68,-667.95"/>
</g>
<!-- load_data&#45;&gt;app_py -->
<g id="edge63" class="edge">
<title>load_data&#45;&gt;app_py</title><style>.edge>path:hover{stroke-width:8}</style>
<path fill="none" stroke="black" d="M1099,-562.63C1109.16,-538.61 1090.46,-530.96 1088,-505 1086.49,-489.07 1082.32,-483.96 1088,-469 1099.17,-439.57 1128.29,-446.76 1135,-416"/>
<path fill="none" stroke="black" d="M1045.67,-625.08C1062.77,-611.59 1086.69,-589.68 1099,-564.63"/>
<path fill="none" stroke="black" d="M1135,-414C1145.2,-351.72 1135,-335.11 1135,-272 1135,-272 1135,-272 1135,-198 1135,-142.44 1098.94,-115.26 1135,-73"/>
</g>
<!-- query_data -->
<g id="node19" class="node">
<title>query_data</title><style>.edge>path:hover{stroke-width:8}</style>
<ellipse fill="#614cb3" stroke="black" cx="1135" cy="-487" rx="38.49" ry="18"/>
<text xml:space="preserve" text-anchor="middle" x="1135" y="-483.5" font-family="Helvetica,sans-Serif" font-size="10.00" fill="#ffffff">query_data</text>
</g>
<!-- load_data&#45;&gt;query_data -->
<g id="edge64" class="edge">
<title>load_data&#45;&gt;query_data</title><style>.edge>path:hover{stroke-width:8}</style>
<path fill="none" stroke="black" d="M1099,-562.63C1105.79,-546.58 1114.21,-529.01 1121.2,-514.95"/>
<polygon fill="#3d6eb8" stroke="black" points="1124.18,-516.83 1125.54,-506.32 1117.92,-513.69 1124.18,-516.83"/>
</g>
<!-- query_data&#45;&gt;app_py -->
<g id="edge65" class="edge">
<title>query_data&#45;&gt;app_py</title><style>.edge>path:hover{stroke-width:8}</style>
<path fill="none" stroke="black" d="M1132.98,-468.81C1131.77,-454.5 1131.14,-433.69 1135,-416"/>
</g>
<!-- typing -->
<g id="node20" class="node">
<title>typing</title><style>.edge>path:hover{stroke-width:8}</style>
<ellipse fill="#c806f9" stroke="black" cx="751" cy="-712.25" rx="27" ry="18"/>
<text xml:space="preserve" text-anchor="middle" x="751" y="-708.75" font-family="Helvetica,sans-Serif" font-size="10.00" fill="#ffffff">typing</text>
</g>
<!-- typing&#45;&gt;flask -->
<g id="edge66" class="edge">
<title>typing&#45;&gt;flask</title><style>.edge>path:hover{stroke-width:8}</style>
<path fill="none" stroke="black" d="M796,-414C795.11,-378.61 827.28,-378.76 834,-344"/>
<path fill="none" stroke="black" d="M851,-270C828.26,-231.6 805.58,-235.85 779,-200"/>
<path fill="none" stroke="black" d="M834,-342C840.08,-310.57 867.31,-299.55 851,-272"/>
</g>
<!-- typing&#45;&gt;flask_app -->
<g id="edge67" class="edge">
<title>typing&#45;&gt;flask_app</title><style>.edge>path:hover{stroke-width:8}</style>
<path fill="none" stroke="black" d="M451,-639.25C436.79,-628.98 432.15,-609.65 431.01,-593.23"/>
<polygon fill="#c806f9" stroke="black" points="434.51,-593.38 430.75,-583.48 427.52,-593.57 434.51,-593.38"/>
</g>
<!-- typing&#45;&gt;flask_blueprints -->
<g id="edge68" class="edge">
<title>typing&#45;&gt;flask_blueprints</title><style>.edge>path:hover{stroke-width:8}</style>
<path fill="none" stroke="black" d="M751,-562.63C748.21,-489.65 692.3,-492.54 650,-433 600.66,-363.56 596.7,-340.46 546,-272"/>
<path fill="none" stroke="black" d="M751,-639.25C753.15,-606.16 752.9,-597.74 751,-564.63"/>
</g>
<!-- typing&#45;&gt;flask_config -->
<g id="edge69" class="edge">
<title>typing&#45;&gt;flask_config</title><style>.edge>path:hover{stroke-width:8}</style>
<path fill="none" stroke="black" d="M751,-639.25C753.04,-607.89 784.4,-588.54 812.48,-577.42"/>
<polygon fill="#c806f9" stroke="black" points="813.41,-580.81 821.6,-574.08 811,-574.24 813.41,-580.81"/>
</g>
<!-- typing&#45;&gt;flask_ctx -->
<g id="edge70" class="edge">
<title>typing&#45;&gt;flask_ctx</title><style>.edge>path:hover{stroke-width:8}</style>
<path fill="none" stroke="black" d="M751,-639.25C754.07,-592.01 700.26,-604.66 675,-564.63"/>
<path fill="none" stroke="black" d="M675,-562.63C664.53,-546.04 651.57,-528.33 640.85,-514.33"/>
<polygon fill="#c806f9" stroke="black" points="643.67,-512.25 634.78,-506.48 638.13,-516.53 643.67,-512.25"/>
<path fill="none" stroke="black" d="M750.38,-693.97C750.02,-679.79 749.83,-659.2 751,-641.25"/>
</g>
<!-- typing&#45;&gt;flask_globals -->
<g id="edge71" class="edge">
<title>typing&#45;&gt;flask_globals</title><style>.edge>path:hover{stroke-width:8}</style>
<path fill="none" stroke="black" d="M675,-562.63C652.34,-526.72 680.9,-503.4 656,-469 644.25,-452.77 625.9,-440.8 608.59,-432.4"/>
<polygon fill="#c806f9" stroke="black" points="610.51,-429.42 599.96,-428.48 607.61,-435.8 610.51,-429.42"/>
</g>
<!-- typing&#45;&gt;flask_helpers -->
<g id="edge72" class="edge">
<title>typing&#45;&gt;flask_helpers</title><style>.edge>path:hover{stroke-width:8}</style>
<path fill="none" stroke="black" d="M733.24,-698.17C682.98,-660.63 536.94,-547.84 437,-433 399.43,-389.82 364.43,-332.72 345.25,-299.41"/>
<polygon fill="#c806f9" stroke="black" points="348.33,-297.75 340.34,-290.79 342.25,-301.22 348.33,-297.75"/>
</g>
<!-- typing&#45;&gt;flask_json -->
<g id="edge73" class="edge">
<title>typing&#45;&gt;flask_json</title><style>.edge>path:hover{stroke-width:8}</style>
<path fill="none" stroke="black" d="M796,-342C792.56,-328.25 788.84,-312.96 785.75,-300.18"/>
<polygon fill="#c806f9" stroke="black" points="789.23,-299.65 783.48,-290.75 782.42,-301.29 789.23,-299.65"/>
<path fill="none" stroke="black" d="M796,-414C795.22,-382.9 803.54,-374.18 796,-344"/>
</g>
<!-- typing&#45;&gt;flask_templating -->
<g id="edge74" class="edge">
<title>typing&#45;&gt;flask_templating</title><style>.edge>path:hover{stroke-width:8}</style>
<path fill="none" stroke="black" d="M451,-639.25C301.24,-531.04 49.95,-326.33 114,-272"/>
<path fill="none" stroke="black" d="M723.82,-710.85C668.21,-708.83 539.22,-697.88 451,-641.25"/>
</g>
<!-- typing&#45;&gt;flask_wrappers -->
<g id="edge75" class="edge">
<title>typing&#45;&gt;flask_wrappers</title><style>.edge>path:hover{stroke-width:8}</style>
<path fill="none" stroke="black" d="M796,-414C793.07,-385.95 766.62,-368.46 740.87,-357.97"/>
<polygon fill="#c806f9" stroke="black" points="742.35,-354.79 731.75,-354.56 739.89,-361.34 742.35,-354.79"/>
<path fill="none" stroke="black" d="M751,-562.63C751,-494.46 803.08,-483.8 796,-416"/>
</g>
<!-- typing&#45;&gt;importlib_metadata -->
<g id="edge76" class="edge">
<title>typing&#45;&gt;importlib_metadata</title><style>.edge>path:hover{stroke-width:8}</style>
<path fill="none" stroke="black" d="M771.59,-700.47C818.15,-676.09 932.16,-616.39 992.34,-584.87"/>
<polygon fill="#c806f9" stroke="black" points="993.65,-588.14 1000.88,-580.4 990.4,-581.94 993.65,-588.14"/>
</g>
<!-- warnings -->
<g id="node21" class="node">
<title>warnings</title><style>.edge>path:hover{stroke-width:8}</style>
<ellipse fill="#ce3b93" stroke="black" cx="893" cy="-784.25" rx="33.07" ry="18"/>
<text xml:space="preserve" text-anchor="middle" x="893" y="-780.75" font-family="Helvetica,sans-Serif" font-size="10.00" fill="#ffffff">warnings</text>
</g>
<!-- warnings&#45;&gt;flask -->
<g id="edge77" class="edge">
<title>warnings&#45;&gt;flask</title><style>.edge>path:hover{stroke-width:8}</style>
<path fill="none" stroke="black" d="M1201,-639.25C1180.67,-575.18 1201,-555.22 1201,-488 1201,-488 1201,-488 1201,-270 1201,-196.78 642.1,-144.16 489.24,-131.13"/>
<polygon fill="#ce3b93" stroke="black" points="489.9,-127.68 479.64,-130.32 489.31,-134.65 489.9,-127.68"/>
</g>
<!-- warnings&#45;&gt;importlib_metadata -->
<g id="edge78" class="edge">
<title>warnings&#45;&gt;importlib_metadata</title><style>.edge>path:hover{stroke-width:8}</style>
<path fill="none" stroke="black" d="M926.03,-781.99C1015.21,-777.07 1250.9,-753.42 1201,-641.25"/>
<path fill="none" stroke="black" d="M1201,-639.25C1185.85,-591.49 1126.4,-574.22 1082.05,-568.02"/>
<polygon fill="#ce3b93" stroke="black" points="1082.7,-564.57 1072.35,-566.82 1081.85,-571.52 1082.7,-564.57"/>
</g>
<!-- warnings&#45;&gt;typing -->
<g id="edge79" class="edge">
<title>warnings&#45;&gt;typing</title><style>.edge>path:hover{stroke-width:8}</style>
<path fill="none" stroke="black" d="M868.91,-771.38C845.13,-759.66 808.63,-741.66 782.54,-728.8"/>
<polygon fill="#ce3b93" stroke="black" points="784.29,-725.76 773.77,-724.48 781.19,-732.04 784.29,-725.76"/>
</g>
</g>
</svg>
